<svg width="351" height="616" viewBox="0 0 351 616" fill="none" xmlns="http://www.w3.org/2000/svg">
    <rect width="351" height="200" fill="#E9ECF5"/>
    <path d="M148.403 111.613H145.823C142.26 111.613 139.371 108.724 139.371 105.161C139.371 103.023 141.104 101.29 143.242 101.29H148.403L148.403 111.613Z" fill="#0071FE"/>
    <path d="M162.558 60H210.3L211.629 62.5806V138.75H150.945L148.364 137.419V74.1936L162.558 60Z" fill="#ECEAEC"/>
    <path d="M209.048 133.548V60C210.473 60 211.629 61.1553 211.629 62.5806V137.419C211.629 138.845 210.473 140 209.048 140H149.693C148.268 140 147.113 138.845 147.113 137.419H205.177C207.315 137.419 209.048 135.686 209.048 133.548ZM147.113 73.972C147.113 73.2877 147.385 72.6312 147.869 72.1472L159.261 60.7558C159.745 60.2719 160.401 60 161.085 60H161.306V72.9033C161.306 73.2455 161.17 73.5737 160.928 73.8157C160.686 74.0577 160.358 74.1936 160.016 74.1936H147.113V73.972Z" fill="#DAD8DB"/>
    <path d="M183.243 109.032H143.243C142.79 109.032 142.356 108.954 141.952 108.812L140.709 110.885V127.187C140.709 129.325 142.442 131.058 144.58 131.058H183.243L185.823 129.677V111.613C185.823 110.187 184.668 109.032 183.243 109.032Z" fill="#0071FE"/>
    <path d="M141.952 108.812C140.452 108.278 139.371 106.844 139.371 105.161V128.387C139.371 130.525 141.104 132.258 143.242 132.258H183.242C184.667 132.258 185.823 131.102 185.823 129.677H145.823C143.685 129.677 141.952 127.944 141.952 125.806V108.812Z" fill="#0071FE"/>
    <path d="M176.196 119.258H173.663V116.812H176.526C177.239 116.812 177.816 116.234 177.816 115.521C177.816 114.809 177.239 114.231 176.526 114.231H172.372C172.203 114.231 172.035 114.264 171.879 114.329C171.722 114.394 171.58 114.489 171.46 114.609C171.34 114.729 171.245 114.871 171.18 115.028C171.115 115.184 171.082 115.352 171.082 115.521V125.769C171.082 126.481 171.659 127.059 172.372 127.059C173.086 127.059 173.663 126.481 173.663 125.769V121.838H176.196C176.909 121.838 177.486 121.261 177.486 120.548C177.486 119.836 176.909 119.258 176.196 119.258ZM152.53 114.193H149.656C149.486 114.193 149.318 114.227 149.161 114.292C149.004 114.357 148.862 114.452 148.742 114.573C148.501 114.815 148.366 115.142 148.366 115.484H148.365V125.806C148.365 126.519 148.942 127.097 149.656 127.097C150.369 127.097 150.946 126.519 150.946 125.806V122.606C151.525 122.603 152.161 122.6 152.53 122.6C154.879 122.6 156.79 120.714 156.79 118.397C156.79 116.079 154.879 114.193 152.53 114.193ZM152.53 120.019C152.006 120.02 151.482 120.022 150.959 120.025C150.956 119.43 150.95 116.774 150.95 116.774H152.53C153.441 116.774 154.21 117.517 154.21 118.397C154.21 119.276 153.441 120.019 152.53 120.019ZM163.35 114.346H160.514C160.344 114.346 160.176 114.379 160.019 114.444C159.863 114.509 159.72 114.604 159.6 114.724C159.48 114.845 159.385 114.987 159.321 115.144C159.256 115.301 159.223 115.469 159.224 115.639L159.231 120.634C159.231 122.027 159.244 125.658 159.244 125.658C159.244 125.828 159.278 125.996 159.344 126.152C159.409 126.308 159.505 126.45 159.626 126.57C159.867 126.81 160.194 126.944 160.534 126.944H160.539C160.539 126.944 162.642 126.936 163.456 126.922C166.487 126.869 168.687 124.229 168.687 120.645C168.687 116.877 166.542 114.346 163.35 114.346ZM163.411 124.341C163.041 124.348 162.403 124.353 161.821 124.356C161.817 123.175 161.812 121.485 161.812 120.634L161.807 116.926H163.35C165.974 116.926 166.106 120.024 166.106 120.645C166.106 122.461 165.273 124.309 163.411 124.341Z" fill="white"/>
    <path d="M166.428 103.651C165.432 103.651 164.533 103.133 163.9 102.155C162.96 100.705 163.207 99.0627 164.577 97.6488C165.958 96.2223 168.784 94.8803 172.185 93.7847C173.246 91.785 174.326 89.4444 175.336 86.8567C175.932 85.3277 176.413 83.9491 176.799 82.7161C175.099 79.5998 174.088 76.6986 174.356 74.8147C174.63 72.9031 176.058 71.827 178.18 71.9442C178.81 71.9783 180.313 72.3072 180.676 74.6219C180.953 76.3917 180.487 79.2527 179.552 82.5038C181.321 85.4883 183.747 88.685 186.119 91.1384C189.706 90.9198 192.745 91.1813 194.273 92.1036C195.47 92.8256 195.94 94.0031 195.531 95.2525C194.86 97.2945 193.241 98.23 191.195 97.7531C189.472 97.3511 187.338 95.8472 185.173 93.7594C181.691 94.0656 177.594 94.7744 173.999 95.8316C171.853 99.683 169.533 102.681 167.585 103.426C167.192 103.577 166.804 103.651 166.428 103.651ZM166.065 100.753C166.281 101.085 166.399 101.078 166.454 101.071C167.276 100.988 168.644 99.5692 170.207 97.1719C169.174 97.6148 168.248 98.0948 167.469 98.6103C165.516 99.9038 165.93 100.543 166.065 100.753ZM188.797 93.5889C189.899 94.4508 190.924 95.0398 191.781 95.2403C192.45 95.3959 192.794 95.3166 193.079 94.4489C192.698 93.8717 191.079 93.5945 188.797 93.5889ZM178.549 85.6327C177.685 88.0838 176.686 90.4851 175.557 92.8258C177.975 92.2184 180.524 91.7402 182.959 91.4366C181.385 89.653 179.864 87.6495 178.549 85.6327ZM177.927 74.4722C177.011 74.4722 176.964 74.8156 176.911 75.1784C176.776 76.1317 177.111 77.4875 177.772 79.0506C178.356 76.2652 178.237 74.7916 177.954 74.4722H177.927Z" fill="#0071FE"/>
    <rect width="351" height="200" transform="translate(0 208)" fill="#E9ECF5"/>
    <path d="M148.403 319.613H145.823C142.26 319.613 139.371 316.724 139.371 313.161C139.371 311.023 141.104 309.29 143.242 309.29H148.403L148.403 319.613Z" fill="#0071FE"/>
    <path d="M162.558 268H210.3L211.629 270.581V346.75H150.945L148.364 345.419V282.194L162.558 268Z" fill="#ECEAEC"/>
    <path d="M209.048 341.548V268C210.473 268 211.629 269.155 211.629 270.581V345.419C211.629 346.845 210.473 348 209.048 348H149.693C148.268 348 147.113 346.845 147.113 345.419H205.177C207.315 345.419 209.048 343.686 209.048 341.548ZM147.113 281.972C147.113 281.288 147.385 280.631 147.869 280.147L159.261 268.756C159.745 268.272 160.401 268 161.085 268H161.306V280.903C161.306 281.245 161.17 281.574 160.928 281.816C160.686 282.058 160.358 282.194 160.016 282.194H147.113V281.972Z" fill="#DAD8DB"/>
    <path d="M183.243 317.032H143.243C142.79 317.032 142.356 316.954 141.952 316.812L140.709 318.885V335.187C140.709 337.325 142.442 339.058 144.58 339.058H183.243L185.823 337.677V319.613C185.823 318.187 184.668 317.032 183.243 317.032Z" fill="#0071FE"/>
    <path d="M141.952 316.812C140.452 316.278 139.371 314.844 139.371 313.161V336.387C139.371 338.525 141.104 340.258 143.242 340.258H183.242C184.667 340.258 185.823 339.102 185.823 337.677H145.823C143.685 337.677 141.952 335.944 141.952 333.806V316.812Z" fill="#0071FE"/>
    <path d="M176.196 327.258H173.663V324.812H176.526C177.239 324.812 177.816 324.234 177.816 323.521C177.816 322.809 177.239 322.231 176.526 322.231H172.372C172.203 322.231 172.035 322.264 171.879 322.329C171.722 322.394 171.58 322.489 171.46 322.609C171.34 322.729 171.245 322.871 171.18 323.028C171.115 323.184 171.082 323.352 171.082 323.521V333.769C171.082 334.481 171.659 335.059 172.372 335.059C173.086 335.059 173.663 334.481 173.663 333.769V329.838H176.196C176.909 329.838 177.486 329.261 177.486 328.548C177.486 327.836 176.909 327.258 176.196 327.258ZM152.53 322.193H149.656C149.486 322.193 149.318 322.227 149.161 322.292C149.004 322.357 148.862 322.452 148.742 322.573C148.501 322.815 148.366 323.142 148.366 323.484H148.365V333.806C148.365 334.519 148.942 335.097 149.656 335.097C150.369 335.097 150.946 334.519 150.946 333.806V330.606C151.525 330.603 152.161 330.6 152.53 330.6C154.879 330.6 156.79 328.714 156.79 326.397C156.79 324.079 154.879 322.193 152.53 322.193ZM152.53 328.019C152.006 328.02 151.482 328.022 150.959 328.025C150.956 327.43 150.95 324.774 150.95 324.774H152.53C153.441 324.774 154.21 325.517 154.21 326.397C154.21 327.276 153.441 328.019 152.53 328.019ZM163.35 322.346H160.514C160.344 322.346 160.176 322.379 160.019 322.444C159.863 322.509 159.72 322.604 159.6 322.724C159.48 322.845 159.385 322.987 159.321 323.144C159.256 323.301 159.223 323.469 159.224 323.639L159.231 328.634C159.231 330.027 159.244 333.658 159.244 333.658C159.244 333.828 159.278 333.996 159.344 334.152C159.409 334.308 159.505 334.45 159.626 334.57C159.867 334.81 160.194 334.944 160.534 334.944H160.539C160.539 334.944 162.642 334.936 163.456 334.922C166.487 334.869 168.687 332.229 168.687 328.645C168.687 324.877 166.542 322.346 163.35 322.346ZM163.411 332.341C163.041 332.348 162.403 332.353 161.821 332.356C161.817 331.175 161.812 329.485 161.812 328.634L161.807 324.926H163.35C165.974 324.926 166.106 328.024 166.106 328.645C166.106 330.461 165.273 332.309 163.411 332.341Z" fill="white"/>
    <path d="M166.428 311.651C165.432 311.651 164.533 311.133 163.9 310.155C162.96 308.705 163.207 307.063 164.577 305.649C165.958 304.222 168.784 302.88 172.185 301.785C173.246 299.785 174.326 297.444 175.336 294.857C175.932 293.328 176.413 291.949 176.799 290.716C175.099 287.6 174.088 284.699 174.356 282.815C174.63 280.903 176.058 279.827 178.18 279.944C178.81 279.978 180.313 280.307 180.676 282.622C180.953 284.392 180.487 287.253 179.552 290.504C181.321 293.488 183.747 296.685 186.119 299.138C189.706 298.92 192.745 299.181 194.273 300.104C195.47 300.826 195.94 302.003 195.531 303.253C194.86 305.295 193.241 306.23 191.195 305.753C189.472 305.351 187.338 303.847 185.173 301.759C181.691 302.066 177.594 302.774 173.999 303.832C171.853 307.683 169.533 310.681 167.585 311.426C167.192 311.577 166.804 311.651 166.428 311.651ZM166.065 308.753C166.281 309.085 166.399 309.078 166.454 309.071C167.276 308.988 168.644 307.569 170.207 305.172C169.174 305.615 168.248 306.095 167.469 306.61C165.516 307.904 165.93 308.543 166.065 308.753ZM188.797 301.589C189.899 302.451 190.924 303.04 191.781 303.24C192.45 303.396 192.794 303.317 193.079 302.449C192.698 301.872 191.079 301.595 188.797 301.589ZM178.549 293.633C177.685 296.084 176.686 298.485 175.557 300.826C177.975 300.218 180.524 299.74 182.959 299.437C181.385 297.653 179.864 295.65 178.549 293.633ZM177.927 282.472C177.011 282.472 176.964 282.816 176.911 283.178C176.776 284.132 177.111 285.488 177.772 287.051C178.356 284.265 178.237 282.792 177.954 282.472H177.927Z" fill="#0071FE"/>
    <rect width="351" height="200" transform="translate(0 416)" fill="#E9ECF5"/>
    <path d="M148.403 527.613H145.823C142.26 527.613 139.371 524.724 139.371 521.161C139.371 519.023 141.104 517.29 143.242 517.29H148.403L148.403 527.613Z" fill="#0071FE"/>
    <path d="M162.558 476H210.3L211.629 478.581V554.75H150.945L148.364 553.419V490.194L162.558 476Z" fill="#ECEAEC"/>
    <path d="M209.048 549.548V476C210.473 476 211.629 477.155 211.629 478.581V553.419C211.629 554.845 210.473 556 209.048 556H149.693C148.268 556 147.113 554.845 147.113 553.419H205.177C207.315 553.419 209.048 551.686 209.048 549.548ZM147.113 489.972C147.113 489.288 147.385 488.631 147.869 488.147L159.261 476.756C159.745 476.272 160.401 476 161.085 476H161.306V488.903C161.306 489.245 161.17 489.574 160.928 489.816C160.686 490.058 160.358 490.194 160.016 490.194H147.113V489.972Z" fill="#DAD8DB"/>
    <path d="M183.243 525.032H143.243C142.79 525.032 142.356 524.954 141.952 524.812L140.709 526.885V543.187C140.709 545.325 142.442 547.058 144.58 547.058H183.243L185.823 545.677V527.613C185.823 526.187 184.668 525.032 183.243 525.032Z" fill="#0071FE"/>
    <path d="M141.952 524.812C140.452 524.278 139.371 522.844 139.371 521.161V544.387C139.371 546.525 141.104 548.258 143.242 548.258H183.242C184.667 548.258 185.823 547.102 185.823 545.677H145.823C143.685 545.677 141.952 543.944 141.952 541.806V524.812Z" fill="#0071FE"/>
    <path d="M176.196 535.258H173.663V532.812H176.526C177.239 532.812 177.816 532.234 177.816 531.521C177.816 530.809 177.239 530.231 176.526 530.231H172.372C172.203 530.231 172.035 530.264 171.879 530.329C171.722 530.394 171.58 530.489 171.46 530.609C171.34 530.729 171.245 530.871 171.18 531.028C171.115 531.184 171.082 531.352 171.082 531.521V541.769C171.082 542.481 171.659 543.059 172.372 543.059C173.086 543.059 173.663 542.481 173.663 541.769V537.838H176.196C176.909 537.838 177.486 537.261 177.486 536.548C177.486 535.836 176.909 535.258 176.196 535.258ZM152.53 530.193H149.656C149.486 530.193 149.318 530.227 149.161 530.292C149.004 530.357 148.862 530.452 148.742 530.573C148.501 530.815 148.366 531.142 148.366 531.484H148.365V541.806C148.365 542.519 148.942 543.097 149.656 543.097C150.369 543.097 150.946 542.519 150.946 541.806V538.606C151.525 538.603 152.161 538.6 152.53 538.6C154.879 538.6 156.79 536.714 156.79 534.397C156.79 532.079 154.879 530.193 152.53 530.193ZM152.53 536.019C152.006 536.02 151.482 536.022 150.959 536.025C150.956 535.43 150.95 532.774 150.95 532.774H152.53C153.441 532.774 154.21 533.517 154.21 534.397C154.21 535.276 153.441 536.019 152.53 536.019ZM163.35 530.346H160.514C160.344 530.346 160.176 530.379 160.019 530.444C159.863 530.509 159.72 530.604 159.6 530.724C159.48 530.845 159.385 530.987 159.321 531.144C159.256 531.301 159.223 531.469 159.224 531.639L159.231 536.634C159.231 538.027 159.244 541.658 159.244 541.658C159.244 541.828 159.278 541.996 159.344 542.152C159.409 542.308 159.505 542.45 159.626 542.57C159.867 542.81 160.194 542.944 160.534 542.944H160.539C160.539 542.944 162.642 542.936 163.456 542.922C166.487 542.869 168.687 540.229 168.687 536.645C168.687 532.877 166.542 530.346 163.35 530.346ZM163.411 540.341C163.041 540.348 162.403 540.353 161.821 540.356C161.817 539.175 161.812 537.485 161.812 536.634L161.807 532.926H163.35C165.974 532.926 166.106 536.024 166.106 536.645C166.106 538.461 165.273 540.309 163.411 540.341Z" fill="white"/>
    <path d="M166.428 519.651C165.432 519.651 164.533 519.133 163.9 518.155C162.96 516.705 163.207 515.063 164.577 513.649C165.958 512.222 168.784 510.88 172.185 509.785C173.246 507.785 174.326 505.444 175.336 502.857C175.932 501.328 176.413 499.949 176.799 498.716C175.099 495.6 174.088 492.699 174.356 490.815C174.63 488.903 176.058 487.827 178.18 487.944C178.81 487.978 180.313 488.307 180.676 490.622C180.953 492.392 180.487 495.253 179.552 498.504C181.321 501.488 183.747 504.685 186.119 507.138C189.706 506.92 192.745 507.181 194.273 508.104C195.47 508.826 195.94 510.003 195.531 511.253C194.86 513.295 193.241 514.23 191.195 513.753C189.472 513.351 187.338 511.847 185.173 509.759C181.691 510.066 177.594 510.774 173.999 511.832C171.853 515.683 169.533 518.681 167.585 519.426C167.192 519.577 166.804 519.651 166.428 519.651ZM166.065 516.753C166.281 517.085 166.399 517.078 166.454 517.071C167.276 516.988 168.644 515.569 170.207 513.172C169.174 513.615 168.248 514.095 167.469 514.61C165.516 515.904 165.93 516.543 166.065 516.753ZM188.797 509.589C189.899 510.451 190.924 511.04 191.781 511.24C192.45 511.396 192.794 511.317 193.079 510.449C192.698 509.872 191.079 509.595 188.797 509.589ZM178.549 501.633C177.685 504.084 176.686 506.485 175.557 508.826C177.975 508.218 180.524 507.74 182.959 507.437C181.385 505.653 179.864 503.65 178.549 501.633ZM177.927 490.472C177.011 490.472 176.964 490.816 176.911 491.178C176.776 492.132 177.111 493.488 177.772 495.051C178.356 492.265 178.237 490.792 177.954 490.472H177.927Z" fill="#0071FE"/>
</svg>
