<svg width="540" height="320" viewBox="0 0 540 320" fill="none" xmlns="http://www.w3.org/2000/svg">
    <rect width="260" height="320" fill="#E9ECF5"/>
    <path d="M102.903 171.613H100.323C96.7595 171.613 93.8711 168.724 93.8711 165.161C93.8711 163.023 95.6042 161.29 97.742 161.29H102.903L102.903 171.613Z" fill="#0071FE"/>
    <path d="M117.058 120H164.8L166.129 122.581V198.75H105.445L102.864 197.419V134.194L117.058 120Z" fill="#ECEAEC"/>
    <path d="M163.548 193.548V120C164.973 120 166.129 121.155 166.129 122.581V197.419C166.129 198.845 164.973 200 163.548 200H104.193C102.768 200 101.613 198.845 101.613 197.419H159.677C161.815 197.419 163.548 195.686 163.548 193.548ZM101.613 133.972C101.613 133.288 101.885 132.631 102.369 132.147L113.761 120.756C114.245 120.272 114.901 120 115.585 120H115.806V132.903C115.806 133.245 115.67 133.574 115.428 133.816C115.186 134.058 114.858 134.194 114.516 134.194H101.613V133.972Z" fill="#DAD8DB"/>
    <path d="M137.741 169.032H97.7406C97.2881 169.032 96.8536 168.954 96.4498 168.812L95.207 170.885V187.187C95.207 189.325 96.9402 191.058 99.078 191.058H137.741L140.321 189.677V171.613C140.321 170.187 139.166 169.032 137.741 169.032Z" fill="#0071FE"/>
    <path d="M96.4517 168.812C94.9517 168.278 93.8711 166.844 93.8711 165.161V188.387C93.8711 190.525 95.6042 192.258 97.742 192.258H137.742C139.167 192.258 140.323 191.102 140.323 189.677H100.323C98.1848 189.677 96.4517 187.944 96.4517 185.806V168.812Z" fill="#0071FE"/>
    <path d="M130.697 179.258H128.165V176.812H131.028C131.741 176.812 132.318 176.234 132.318 175.521C132.318 174.809 131.741 174.231 131.028 174.231H126.874C126.705 174.231 126.537 174.264 126.381 174.329C126.224 174.394 126.082 174.489 125.962 174.609C125.842 174.729 125.747 174.871 125.682 175.028C125.617 175.184 125.584 175.352 125.584 175.521V185.769C125.584 186.481 126.161 187.059 126.874 187.059C127.587 187.059 128.165 186.481 128.165 185.769V181.838H130.697C131.411 181.838 131.988 181.261 131.988 180.548C131.988 179.836 131.411 179.258 130.697 179.258ZM107.032 174.193H104.158C103.988 174.193 103.82 174.227 103.663 174.292C103.506 174.357 103.364 174.452 103.244 174.573C103.003 174.815 102.868 175.142 102.868 175.484H102.867V185.806C102.867 186.519 103.444 187.097 104.158 187.097C104.871 187.097 105.448 186.519 105.448 185.806V182.606C106.027 182.603 106.663 182.6 107.032 182.6C109.38 182.6 111.292 180.714 111.292 178.397C111.292 176.079 109.381 174.193 107.032 174.193ZM107.032 180.019C106.508 180.02 105.984 180.022 105.461 180.025C105.458 179.43 105.452 176.774 105.452 176.774H107.032C107.943 176.774 108.712 177.517 108.712 178.397C108.712 179.276 107.943 180.019 107.032 180.019ZM117.852 174.346H115.016C114.846 174.346 114.678 174.379 114.521 174.444C114.365 174.509 114.222 174.604 114.102 174.724C113.982 174.845 113.887 174.987 113.823 175.144C113.758 175.301 113.725 175.469 113.725 175.639L113.733 180.634C113.733 182.027 113.746 185.658 113.746 185.658C113.746 185.828 113.78 185.996 113.846 186.152C113.911 186.308 114.007 186.45 114.128 186.57C114.369 186.81 114.696 186.944 115.036 186.944H115.041C115.041 186.944 117.144 186.936 117.958 186.922C120.989 186.869 123.189 184.229 123.189 180.645C123.189 176.877 121.044 174.346 117.852 174.346ZM117.913 184.341C117.543 184.348 116.905 184.353 116.322 184.356C116.319 183.175 116.314 181.485 116.314 180.634L116.309 176.926H117.852C120.476 176.926 120.608 180.024 120.608 180.645C120.608 182.461 119.775 184.309 117.913 184.341Z" fill="white"/>
    <path d="M120.926 163.651C119.93 163.651 119.031 163.133 118.398 162.155C117.458 160.705 117.705 159.063 119.075 157.649C120.456 156.222 123.282 154.88 126.683 153.785C127.744 151.785 128.824 149.444 129.834 146.857C130.43 145.328 130.911 143.949 131.297 142.716C129.597 139.6 128.586 136.699 128.855 134.815C129.128 132.903 130.556 131.827 132.678 131.944C133.308 131.978 134.811 132.307 135.174 134.622C135.451 136.392 134.985 139.253 134.05 142.504C135.819 145.488 138.245 148.685 140.617 151.138C144.204 150.92 147.243 151.181 148.771 152.104C149.968 152.826 150.438 154.003 150.029 155.253C149.358 157.295 147.739 158.23 145.693 157.753C143.97 157.351 141.836 155.847 139.671 153.759C136.189 154.066 132.092 154.774 128.497 155.832C126.351 159.683 124.031 162.681 122.083 163.426C121.69 163.577 121.302 163.651 120.926 163.651ZM120.563 160.753C120.779 161.085 120.897 161.078 120.953 161.071C121.774 160.988 123.143 159.569 124.705 157.172C123.672 157.615 122.746 158.095 121.967 158.61C120.014 159.904 120.428 160.543 120.563 160.753ZM143.295 153.589C144.397 154.451 145.422 155.04 146.279 155.24C146.948 155.396 147.292 155.317 147.577 154.449C147.196 153.872 145.577 153.595 143.295 153.589ZM133.047 145.633C132.183 148.084 131.184 150.485 130.055 152.826C132.473 152.218 135.023 151.74 137.457 151.437C135.883 149.653 134.362 147.65 133.047 145.633ZM132.425 134.472C131.509 134.472 131.462 134.816 131.409 135.178C131.274 136.132 131.609 137.488 132.27 139.051C132.854 136.265 132.735 134.792 132.452 134.472H132.425Z" fill="#0071FE"/>
    <rect width="260" height="320" transform="translate(280)" fill="#E9ECF5"/>
    <path d="M382.903 171.613H380.323C376.76 171.613 373.871 168.724 373.871 165.161C373.871 163.023 375.604 161.29 377.742 161.29H382.903L382.903 171.613Z" fill="#0071FE"/>
    <path d="M397.058 120H444.8L446.129 122.581V198.75H385.445L382.864 197.419V134.194L397.058 120Z" fill="#ECEAEC"/>
    <path d="M443.548 193.548V120C444.973 120 446.129 121.155 446.129 122.581V197.419C446.129 198.845 444.973 200 443.548 200H384.193C382.768 200 381.613 198.845 381.613 197.419H439.677C441.815 197.419 443.548 195.686 443.548 193.548ZM381.613 133.972C381.613 133.288 381.885 132.631 382.369 132.147L393.761 120.756C394.245 120.272 394.901 120 395.585 120H395.806V132.903C395.806 133.245 395.67 133.574 395.428 133.816C395.186 134.058 394.858 134.194 394.516 134.194H381.613V133.972Z" fill="#DAD8DB"/>
    <path d="M417.741 169.032H377.741C377.288 169.032 376.854 168.954 376.45 168.812L375.207 170.885V187.187C375.207 189.325 376.94 191.058 379.078 191.058H417.741L420.321 189.677V171.613C420.321 170.187 419.166 169.032 417.741 169.032Z" fill="#0071FE"/>
    <path d="M376.452 168.812C374.952 168.278 373.871 166.844 373.871 165.161V188.387C373.871 190.525 375.604 192.258 377.742 192.258H417.742C419.167 192.258 420.323 191.102 420.323 189.677H380.323C378.185 189.677 376.452 187.944 376.452 185.806V168.812Z" fill="#0071FE"/>
    <path d="M410.697 179.258H408.165V176.812H411.028C411.741 176.812 412.318 176.234 412.318 175.521C412.318 174.809 411.741 174.231 411.028 174.231H406.874C406.705 174.231 406.537 174.264 406.381 174.329C406.224 174.394 406.082 174.489 405.962 174.609C405.842 174.729 405.747 174.871 405.682 175.028C405.617 175.184 405.584 175.352 405.584 175.521V185.769C405.584 186.481 406.161 187.059 406.874 187.059C407.587 187.059 408.165 186.481 408.165 185.769V181.838H410.697C411.411 181.838 411.988 181.261 411.988 180.548C411.988 179.836 411.411 179.258 410.697 179.258ZM387.032 174.193H384.158C383.988 174.193 383.82 174.227 383.663 174.292C383.506 174.357 383.364 174.452 383.244 174.573C383.003 174.815 382.868 175.142 382.868 175.484H382.867V185.806C382.867 186.519 383.444 187.097 384.158 187.097C384.871 187.097 385.448 186.519 385.448 185.806V182.606C386.027 182.603 386.663 182.6 387.032 182.6C389.38 182.6 391.292 180.714 391.292 178.397C391.292 176.079 389.381 174.193 387.032 174.193ZM387.032 180.019C386.508 180.02 385.984 180.022 385.461 180.025C385.458 179.43 385.452 176.774 385.452 176.774H387.032C387.943 176.774 388.712 177.517 388.712 178.397C388.712 179.276 387.943 180.019 387.032 180.019ZM397.852 174.346H395.016C394.846 174.346 394.678 174.379 394.521 174.444C394.365 174.509 394.222 174.604 394.102 174.724C393.982 174.845 393.887 174.987 393.823 175.144C393.758 175.301 393.725 175.469 393.725 175.639L393.733 180.634C393.733 182.027 393.746 185.658 393.746 185.658C393.746 185.828 393.78 185.996 393.846 186.152C393.911 186.308 394.007 186.45 394.128 186.57C394.369 186.81 394.696 186.944 395.036 186.944H395.041C395.041 186.944 397.144 186.936 397.958 186.922C400.989 186.869 403.189 184.229 403.189 180.645C403.189 176.877 401.044 174.346 397.852 174.346ZM397.913 184.341C397.543 184.348 396.905 184.353 396.322 184.356C396.319 183.175 396.314 181.485 396.314 180.634L396.309 176.926H397.852C400.476 176.926 400.608 180.024 400.608 180.645C400.608 182.461 399.775 184.309 397.913 184.341Z" fill="white"/>
    <path d="M400.926 163.651C399.93 163.651 399.031 163.133 398.398 162.155C397.458 160.705 397.705 159.063 399.075 157.649C400.456 156.222 403.282 154.88 406.683 153.785C407.744 151.785 408.824 149.444 409.834 146.857C410.43 145.328 410.911 143.949 411.297 142.716C409.597 139.6 408.586 136.699 408.855 134.815C409.128 132.903 410.556 131.827 412.678 131.944C413.308 131.978 414.811 132.307 415.174 134.622C415.451 136.392 414.985 139.253 414.05 142.504C415.819 145.488 418.245 148.685 420.617 151.138C424.204 150.92 427.243 151.181 428.771 152.104C429.968 152.826 430.438 154.003 430.029 155.253C429.358 157.295 427.739 158.23 425.693 157.753C423.97 157.351 421.836 155.847 419.671 153.759C416.189 154.066 412.092 154.774 408.497 155.832C406.351 159.683 404.031 162.681 402.083 163.426C401.69 163.577 401.302 163.651 400.926 163.651ZM400.563 160.753C400.779 161.085 400.897 161.078 400.953 161.071C401.774 160.988 403.143 159.569 404.705 157.172C403.672 157.615 402.746 158.095 401.967 158.61C400.014 159.904 400.428 160.543 400.563 160.753ZM423.295 153.589C424.397 154.451 425.422 155.04 426.279 155.24C426.948 155.396 427.292 155.317 427.577 154.449C427.196 153.872 425.577 153.595 423.295 153.589ZM413.047 145.633C412.183 148.084 411.184 150.485 410.055 152.826C412.473 152.218 415.023 151.74 417.457 151.437C415.883 149.653 414.362 147.65 413.047 145.633ZM412.425 134.472C411.509 134.472 411.462 134.816 411.409 135.178C411.274 136.132 411.609 137.488 412.27 139.051C412.854 136.265 412.735 134.792 412.452 134.472H412.425Z" fill="#0071FE"/>
</svg>
