<svg width="927" height="420" viewBox="0 0 927 420" fill="none" xmlns="http://www.w3.org/2000/svg">
<rect width="295.667" height="420" fill="#E9ECF5"/>
<path d="M120.737 221.613H118.157C114.594 221.613 111.705 218.725 111.705 215.161C111.705 213.024 113.438 211.291 115.576 211.291H120.737L120.737 221.613Z" fill="#0071FE"/>
<path d="M134.892 170H182.634L183.963 172.581V248.75H123.279L120.698 247.419V184.194L134.892 170Z" fill="#ECEAEC"/>
<path d="M181.382 243.548V170C182.807 170 183.963 171.155 183.963 172.581V247.419C183.963 248.845 182.807 250 181.382 250H122.027C120.602 250 119.447 248.845 119.447 247.419H177.511C179.649 247.419 181.382 245.686 181.382 243.548ZM119.447 183.972C119.447 183.288 119.719 182.631 120.203 182.147L131.595 170.756C132.079 170.272 132.735 170 133.419 170H133.64V182.903C133.64 183.245 133.504 183.574 133.262 183.816C133.02 184.058 132.692 184.194 132.35 184.194H119.447V183.972Z" fill="#DAD8DB"/>
<path d="M155.577 219.032H115.577C115.124 219.032 114.69 218.955 114.286 218.812L113.043 220.886V237.188C113.043 239.326 114.776 241.059 116.914 241.059H155.577L158.157 239.677V221.613C158.157 220.188 157.002 219.032 155.577 219.032Z" fill="#0071FE"/>
<path d="M114.286 218.812C112.786 218.278 111.705 216.844 111.705 215.161V238.387C111.705 240.525 113.438 242.258 115.576 242.258H155.576C157.001 242.258 158.157 241.102 158.157 239.677H118.157C116.019 239.677 114.286 237.944 114.286 235.806V218.812Z" fill="#0071FE"/>
<path d="M148.53 229.258H145.997V226.812H148.86C149.573 226.812 150.15 226.234 150.15 225.521C150.15 224.809 149.573 224.231 148.86 224.231H144.706C144.537 224.231 144.369 224.264 144.213 224.329C144.056 224.394 143.914 224.489 143.794 224.609C143.674 224.729 143.579 224.871 143.514 225.028C143.449 225.184 143.416 225.352 143.416 225.521V235.769C143.416 236.481 143.993 237.059 144.706 237.059C145.42 237.059 145.997 236.481 145.997 235.769V231.838H148.53C149.243 231.838 149.82 231.261 149.82 230.548C149.82 229.836 149.243 229.258 148.53 229.258ZM124.864 224.193H121.99C121.82 224.193 121.652 224.227 121.495 224.292C121.338 224.357 121.196 224.452 121.076 224.573C120.835 224.815 120.7 225.142 120.7 225.484H120.699V235.806C120.699 236.519 121.276 237.097 121.99 237.097C122.703 237.097 123.28 236.519 123.28 235.806V232.606C123.859 232.603 124.495 232.6 124.864 232.6C127.212 232.6 129.124 230.714 129.124 228.397C129.124 226.079 127.213 224.193 124.864 224.193ZM124.864 230.019C124.34 230.02 123.816 230.022 123.293 230.025C123.29 229.43 123.284 226.774 123.284 226.774H124.864C125.775 226.774 126.544 227.517 126.544 228.397C126.544 229.276 125.775 230.019 124.864 230.019ZM135.684 224.346H132.848C132.678 224.346 132.51 224.379 132.353 224.444C132.197 224.509 132.054 224.604 131.934 224.724C131.814 224.845 131.719 224.987 131.655 225.144C131.59 225.301 131.557 225.469 131.557 225.639L131.565 230.634C131.565 232.027 131.578 235.658 131.578 235.658C131.578 235.828 131.612 235.996 131.678 236.152C131.743 236.308 131.839 236.45 131.96 236.57C132.201 236.81 132.528 236.944 132.868 236.944H132.873C132.873 236.944 134.976 236.936 135.79 236.922C138.821 236.869 141.021 234.229 141.021 230.645C141.021 226.877 138.876 224.346 135.684 224.346ZM135.745 234.341C135.375 234.348 134.737 234.353 134.155 234.356C134.151 233.175 134.146 231.485 134.146 230.634L134.141 226.926H135.684C138.308 226.926 138.44 230.024 138.44 230.645C138.44 232.461 137.607 234.309 135.745 234.341Z" fill="white"/>
<path d="M138.762 213.651C137.766 213.651 136.867 213.133 136.234 212.155C135.294 210.705 135.541 209.063 136.911 207.649C138.292 206.222 141.118 204.88 144.519 203.785C145.58 201.785 146.66 199.444 147.67 196.857C148.266 195.328 148.747 193.949 149.133 192.716C147.433 189.6 146.422 186.699 146.69 184.815C146.964 182.903 148.392 181.827 150.514 181.944C151.144 181.978 152.647 182.307 153.01 184.622C153.287 186.392 152.821 189.253 151.886 192.504C153.655 195.488 156.081 198.685 158.453 201.138C162.04 200.92 165.079 201.181 166.607 202.104C167.804 202.826 168.274 204.003 167.865 205.253C167.194 207.295 165.575 208.23 163.529 207.753C161.806 207.351 159.672 205.847 157.507 203.759C154.025 204.066 149.928 204.774 146.333 205.832C144.187 209.683 141.867 212.681 139.919 213.426C139.526 213.577 139.138 213.651 138.762 213.651ZM138.399 210.753C138.615 211.085 138.733 211.078 138.788 211.071C139.61 210.988 140.978 209.569 142.541 207.172C141.508 207.615 140.582 208.095 139.803 208.61C137.85 209.904 138.264 210.543 138.399 210.753ZM161.131 203.589C162.233 204.451 163.258 205.04 164.115 205.24C164.784 205.396 165.128 205.317 165.413 204.449C165.032 203.872 163.413 203.595 161.131 203.589ZM150.883 195.633C150.019 198.084 149.02 200.485 147.891 202.826C150.309 202.218 152.858 201.74 155.293 201.437C153.719 199.653 152.198 197.65 150.883 195.633ZM150.261 184.472C149.345 184.472 149.297 184.816 149.245 185.178C149.11 186.132 149.445 187.488 150.106 189.051C150.69 186.265 150.571 184.792 150.288 184.472H150.261Z" fill="#0071FE"/>
<rect width="295.667" height="420" transform="translate(315.666)" fill="#E9ECF5"/>
<path d="M436.403 221.613H433.823C430.26 221.613 427.371 218.725 427.371 215.161C427.371 213.024 429.104 211.291 431.242 211.291H436.403L436.403 221.613Z" fill="#0071FE"/>
<path d="M450.558 170H498.3L499.629 172.581V248.75H438.945L436.364 247.419V184.194L450.558 170Z" fill="#ECEAEC"/>
<path d="M497.048 243.548V170C498.473 170 499.629 171.155 499.629 172.581V247.419C499.629 248.845 498.473 250 497.048 250H437.693C436.268 250 435.113 248.845 435.113 247.419H493.177C495.315 247.419 497.048 245.686 497.048 243.548ZM435.113 183.972C435.113 183.288 435.385 182.631 435.869 182.147L447.261 170.756C447.745 170.272 448.401 170 449.085 170H449.306V182.903C449.306 183.245 449.17 183.574 448.928 183.816C448.686 184.058 448.358 184.194 448.016 184.194H435.113V183.972Z" fill="#DAD8DB"/>
<path d="M471.243 219.032H431.243C430.79 219.032 430.356 218.955 429.952 218.812L428.709 220.886V237.188C428.709 239.326 430.442 241.059 432.58 241.059H471.243L473.823 239.677V221.613C473.823 220.188 472.668 219.032 471.243 219.032Z" fill="#0071FE"/>
<path d="M429.952 218.812C428.452 218.278 427.371 216.844 427.371 215.161V238.387C427.371 240.525 429.104 242.258 431.242 242.258H471.242C472.667 242.258 473.823 241.102 473.823 239.677H433.823C431.685 239.677 429.952 237.944 429.952 235.806V218.812Z" fill="#0071FE"/>
<path d="M464.196 229.258H461.663V226.812H464.526C465.239 226.812 465.816 226.234 465.816 225.521C465.816 224.809 465.239 224.231 464.526 224.231H460.372C460.203 224.231 460.035 224.264 459.879 224.329C459.722 224.394 459.58 224.489 459.46 224.609C459.34 224.729 459.245 224.871 459.18 225.028C459.115 225.184 459.082 225.352 459.082 225.521V235.769C459.082 236.481 459.659 237.059 460.372 237.059C461.086 237.059 461.663 236.481 461.663 235.769V231.838H464.196C464.909 231.838 465.486 231.261 465.486 230.548C465.486 229.836 464.909 229.258 464.196 229.258ZM440.53 224.193H437.656C437.486 224.193 437.318 224.227 437.161 224.292C437.004 224.357 436.862 224.452 436.742 224.573C436.501 224.815 436.366 225.142 436.366 225.484H436.365V235.806C436.365 236.519 436.942 237.097 437.656 237.097C438.369 237.097 438.946 236.519 438.946 235.806V232.606C439.525 232.603 440.161 232.6 440.53 232.6C442.879 232.6 444.79 230.714 444.79 228.397C444.79 226.079 442.879 224.193 440.53 224.193ZM440.53 230.019C440.006 230.02 439.482 230.022 438.959 230.025C438.956 229.43 438.95 226.774 438.95 226.774H440.53C441.441 226.774 442.21 227.517 442.21 228.397C442.21 229.276 441.441 230.019 440.53 230.019ZM451.35 224.346H448.514C448.344 224.346 448.176 224.379 448.019 224.444C447.863 224.509 447.72 224.604 447.6 224.724C447.48 224.845 447.385 224.987 447.321 225.144C447.256 225.301 447.223 225.469 447.224 225.639L447.231 230.634C447.231 232.027 447.244 235.658 447.244 235.658C447.244 235.828 447.278 235.996 447.344 236.152C447.409 236.308 447.505 236.45 447.626 236.57C447.867 236.81 448.194 236.944 448.534 236.944H448.539C448.539 236.944 450.642 236.936 451.456 236.922C454.487 236.869 456.687 234.229 456.687 230.645C456.687 226.877 454.542 224.346 451.35 224.346ZM451.411 234.341C451.041 234.348 450.403 234.353 449.821 234.356C449.817 233.175 449.812 231.485 449.812 230.634L449.807 226.926H451.35C453.974 226.926 454.106 230.024 454.106 230.645C454.106 232.461 453.273 234.309 451.411 234.341Z" fill="white"/>
<path d="M454.428 213.651C453.432 213.651 452.533 213.133 451.9 212.155C450.96 210.705 451.207 209.063 452.577 207.649C453.958 206.222 456.784 204.88 460.185 203.785C461.246 201.785 462.326 199.444 463.336 196.857C463.932 195.328 464.413 193.949 464.799 192.716C463.099 189.6 462.088 186.699 462.356 184.815C462.63 182.903 464.058 181.827 466.18 181.944C466.81 181.978 468.313 182.307 468.676 184.622C468.953 186.392 468.487 189.253 467.552 192.504C469.321 195.488 471.747 198.685 474.119 201.138C477.706 200.92 480.745 201.181 482.273 202.104C483.47 202.826 483.94 204.003 483.531 205.253C482.86 207.295 481.241 208.23 479.195 207.753C477.472 207.351 475.338 205.847 473.173 203.759C469.691 204.066 465.594 204.774 461.999 205.832C459.853 209.683 457.533 212.681 455.585 213.426C455.192 213.577 454.804 213.651 454.428 213.651ZM454.065 210.753C454.281 211.085 454.399 211.078 454.454 211.071C455.276 210.988 456.644 209.569 458.207 207.172C457.174 207.615 456.248 208.095 455.469 208.61C453.516 209.904 453.93 210.543 454.065 210.753ZM476.797 203.589C477.899 204.451 478.924 205.04 479.781 205.24C480.45 205.396 480.794 205.317 481.079 204.449C480.698 203.872 479.079 203.595 476.797 203.589ZM466.549 195.633C465.685 198.084 464.686 200.485 463.557 202.826C465.975 202.218 468.524 201.74 470.959 201.437C469.385 199.653 467.864 197.65 466.549 195.633ZM465.927 184.472C465.011 184.472 464.964 184.816 464.911 185.178C464.776 186.132 465.111 187.488 465.772 189.051C466.356 186.265 466.237 184.792 465.954 184.472H465.927Z" fill="#0071FE"/>
<rect width="295.667" height="420" transform="translate(631.334)" fill="#E9ECF5"/>
<path d="M752.071 221.613H749.491C745.928 221.613 743.039 218.725 743.039 215.161C743.039 213.024 744.772 211.291 746.91 211.291H752.071L752.071 221.613Z" fill="#0071FE"/>
<path d="M766.226 170H813.968L815.297 172.581V248.75H754.613L752.032 247.419V184.194L766.226 170Z" fill="#ECEAEC"/>
<path d="M812.716 243.548V170C814.141 170 815.297 171.155 815.297 172.581V247.419C815.297 248.845 814.141 250 812.716 250H753.361C751.936 250 750.781 248.845 750.781 247.419H808.845C810.983 247.419 812.716 245.686 812.716 243.548ZM750.781 183.972C750.781 183.288 751.053 182.631 751.537 182.147L762.929 170.756C763.413 170.272 764.069 170 764.753 170H764.974V182.903C764.974 183.245 764.838 183.574 764.596 183.816C764.354 184.058 764.026 184.194 763.684 184.194H750.781V183.972Z" fill="#DAD8DB"/>
<path d="M786.911 219.032H746.911C746.458 219.032 746.024 218.955 745.62 218.812L744.377 220.886V237.188C744.377 239.326 746.11 241.059 748.248 241.059H786.911L789.491 239.677V221.613C789.491 220.188 788.336 219.032 786.911 219.032Z" fill="#0071FE"/>
<path d="M745.62 218.812C744.12 218.278 743.039 216.844 743.039 215.161V238.387C743.039 240.525 744.772 242.258 746.91 242.258H786.91C788.335 242.258 789.491 241.102 789.491 239.677H749.491C747.353 239.677 745.62 237.944 745.62 235.806V218.812Z" fill="#0071FE"/>
<path d="M779.864 229.258H777.331V226.812H780.194C780.907 226.812 781.484 226.234 781.484 225.521C781.484 224.809 780.907 224.231 780.194 224.231H776.04C775.871 224.231 775.703 224.264 775.547 224.329C775.39 224.394 775.248 224.489 775.128 224.609C775.008 224.729 774.913 224.871 774.848 225.028C774.783 225.184 774.75 225.352 774.75 225.521V235.769C774.75 236.481 775.327 237.059 776.04 237.059C776.754 237.059 777.331 236.481 777.331 235.769V231.838H779.864C780.577 231.838 781.154 231.261 781.154 230.548C781.154 229.836 780.577 229.258 779.864 229.258ZM756.198 224.193H753.324C753.154 224.193 752.986 224.227 752.829 224.292C752.672 224.357 752.53 224.452 752.41 224.573C752.169 224.815 752.034 225.142 752.034 225.484H752.033V235.806C752.033 236.519 752.61 237.097 753.324 237.097C754.037 237.097 754.614 236.519 754.614 235.806V232.606C755.193 232.603 755.829 232.6 756.198 232.6C758.546 232.6 760.458 230.714 760.458 228.397C760.458 226.079 758.547 224.193 756.198 224.193ZM756.198 230.019C755.674 230.02 755.15 230.022 754.627 230.025C754.624 229.43 754.618 226.774 754.618 226.774H756.198C757.109 226.774 757.878 227.517 757.878 228.397C757.878 229.276 757.109 230.019 756.198 230.019ZM767.018 224.346H764.182C764.012 224.346 763.844 224.379 763.687 224.444C763.531 224.509 763.388 224.604 763.268 224.724C763.148 224.845 763.053 224.987 762.989 225.144C762.924 225.301 762.891 225.469 762.891 225.639L762.899 230.634C762.899 232.027 762.912 235.658 762.912 235.658C762.912 235.828 762.946 235.996 763.012 236.152C763.077 236.308 763.173 236.45 763.294 236.57C763.535 236.81 763.862 236.944 764.202 236.944H764.207C764.207 236.944 766.31 236.936 767.124 236.922C770.155 236.869 772.355 234.229 772.355 230.645C772.355 226.877 770.21 224.346 767.018 224.346ZM767.079 234.341C766.709 234.348 766.071 234.353 765.489 234.356C765.485 233.175 765.48 231.485 765.48 230.634L765.475 226.926H767.018C769.642 226.926 769.774 230.024 769.774 230.645C769.774 232.461 768.941 234.309 767.079 234.341Z" fill="white"/>
<path d="M770.096 213.651C769.1 213.651 768.201 213.133 767.568 212.155C766.628 210.705 766.875 209.063 768.245 207.649C769.626 206.222 772.452 204.88 775.853 203.785C776.914 201.785 777.994 199.444 779.004 196.857C779.6 195.328 780.081 193.949 780.466 192.716C778.767 189.6 777.756 186.699 778.024 184.815C778.298 182.903 779.726 181.827 781.848 181.944C782.478 181.978 783.981 182.307 784.344 184.622C784.621 186.392 784.155 189.253 783.22 192.504C784.989 195.488 787.415 198.685 789.787 201.138C793.374 200.92 796.413 201.181 797.941 202.104C799.138 202.826 799.608 204.003 799.199 205.253C798.528 207.295 796.909 208.23 794.863 207.753C793.14 207.351 791.006 205.847 788.841 203.759C785.359 204.066 781.261 204.774 777.666 205.832C775.521 209.683 773.201 212.681 771.253 213.426C770.86 213.577 770.471 213.651 770.096 213.651ZM769.733 210.753C769.949 211.085 770.067 211.078 770.122 211.071C770.944 210.988 772.312 209.569 773.875 207.172C772.842 207.615 771.916 208.095 771.137 208.61C769.184 209.904 769.598 210.543 769.733 210.753ZM792.465 203.589C793.567 204.451 794.592 205.04 795.449 205.24C796.118 205.396 796.462 205.317 796.747 204.449C796.366 203.872 794.747 203.595 792.465 203.589ZM782.217 195.633C781.353 198.084 780.354 200.485 779.225 202.826C781.643 202.218 784.192 201.74 786.627 201.437C785.053 199.653 783.532 197.65 782.217 195.633ZM781.595 184.472C780.679 184.472 780.631 184.816 780.579 185.178C780.444 186.132 780.779 187.488 781.44 189.051C782.024 186.265 781.905 184.792 781.622 184.472H781.595Z" fill="#0071FE"/>
</svg>
